<svg width="173.888" height="23.105" viewBox="0 0 173.888 23.105" xmlns="http://www.w3.org/2000/svg"><g id="svgGroup" stroke-linecap="round" fill-rule="evenodd" font-size="9pt" stroke="#ffffff" stroke-width="0.25" fill="#ffffff" style="stroke:#ffffff;stroke-width:0.25;fill:#ffffff" class=""><path d="M 106.912 0.64 L 106.912 0 Q 107.648 0.032 108.816 0.064 Q 109.984 0.096 111.136 0.096 Q 112.672 0.096 114.064 0.064 Q 115.346 0.035 115.936 0.033 A 24.381 24.381 0 0 1 116.032 0.032 A 17.364 17.364 0 0 1 117.943 0.131 Q 119.43 0.296 120.56 0.736 A 7.234 7.234 0 0 1 121.831 1.372 Q 122.712 1.934 123.248 2.704 Q 124.128 3.968 124.128 5.6 A 5.556 5.556 0 0 1 123.987 6.818 A 7.224 7.224 0 0 1 123.728 7.696 A 4.941 4.941 0 0 1 122.948 9.076 A 6.383 6.383 0 0 1 122.336 9.744 A 6.058 6.058 0 0 1 121.251 10.556 Q 120.725 10.869 120.086 11.129 A 11.031 11.031 0 0 1 119.648 11.296 Q 117.952 11.904 115.328 11.904 L 112.256 11.904 L 112.256 11.264 L 115.008 11.264 Q 117.152 11.264 118.288 10.544 A 3.789 3.789 0 0 0 119.31 9.613 A 3.481 3.481 0 0 0 119.824 8.624 A 7.726 7.726 0 0 0 120.168 7.018 A 9.792 9.792 0 0 0 120.224 5.952 A 9.47 9.47 0 0 0 120.112 4.449 Q 119.876 2.978 119.136 2.032 A 3.235 3.235 0 0 0 117.736 1.022 Q 117.191 0.807 116.507 0.713 A 8.451 8.451 0 0 0 115.36 0.64 A 5.428 5.428 0 0 0 114.767 0.67 Q 114.152 0.738 113.805 0.96 A 1.022 1.022 0 0 0 113.552 1.184 A 1.385 1.385 0 0 0 113.346 1.572 Q 113.121 2.187 113.12 3.38 A 12.623 12.623 0 0 0 113.12 3.392 L 113.12 19.264 A 11.105 11.105 0 0 0 113.135 19.867 Q 113.174 20.578 113.312 20.992 A 1.303 1.303 0 0 0 113.526 21.397 A 1.133 1.133 0 0 0 114.048 21.76 A 3.196 3.196 0 0 0 114.427 21.865 Q 114.914 21.972 115.648 22.016 L 115.648 22.656 Q 114.88 22.592 113.712 22.576 Q 112.544 22.56 111.328 22.56 Q 109.984 22.56 108.816 22.576 Q 107.771 22.591 107.072 22.643 A 14.007 14.007 0 0 0 106.912 22.656 L 106.912 22.016 Q 107.832 21.962 108.363 21.817 A 2.653 2.653 0 0 0 108.544 21.76 A 1.089 1.089 0 0 0 109.211 21.139 A 1.439 1.439 0 0 0 109.264 20.992 A 3.071 3.071 0 0 0 109.353 20.6 Q 109.421 20.191 109.436 19.611 A 13.377 13.377 0 0 0 109.44 19.264 L 109.44 3.392 Q 109.44 2.208 109.264 1.648 A 1.138 1.138 0 0 0 108.65 0.932 A 1.443 1.443 0 0 0 108.528 0.88 Q 108.022 0.692 107.112 0.648 A 10.921 10.921 0 0 0 106.912 0.64 Z M 159.552 11.104 L 159.552 19.68 Q 159.552 20.777 159.903 21.298 A 1.131 1.131 0 0 0 160.08 21.504 Q 160.608 21.984 161.856 21.984 L 161.856 22.656 Q 161.312 22.624 160.16 22.576 Q 159.008 22.528 157.888 22.528 Q 156.8 22.528 155.728 22.576 Q 154.907 22.613 154.396 22.64 A 54.403 54.403 0 0 0 154.112 22.656 L 154.112 21.984 Q 155.2 21.984 155.648 21.504 Q 156.02 21.106 156.083 20.113 A 6.817 6.817 0 0 0 156.096 19.68 L 156.096 10.208 Q 156.096 9.28 155.936 8.528 Q 155.776 7.776 155.264 7.312 A 1.607 1.607 0 0 0 154.696 6.988 Q 154.454 6.905 154.158 6.871 A 3.823 3.823 0 0 0 153.728 6.848 Q 152.544 6.848 151.632 7.52 A 4.338 4.338 0 0 0 150.485 8.799 A 5.456 5.456 0 0 0 150.192 9.36 A 5.974 5.974 0 0 0 149.699 11.244 A 7.324 7.324 0 0 0 149.664 11.968 L 149.664 19.68 A 6.093 6.093 0 0 0 149.692 20.29 Q 149.753 20.896 149.948 21.254 A 1.14 1.14 0 0 0 150.128 21.504 A 1.369 1.369 0 0 0 150.625 21.824 Q 150.844 21.909 151.119 21.949 A 3.69 3.69 0 0 0 151.648 21.984 L 151.648 22.656 Q 151.138 22.625 150.105 22.577 A 528.562 528.562 0 0 0 150.096 22.576 Q 149.056 22.528 147.936 22.528 Q 146.848 22.528 145.664 22.576 Q 144.48 22.624 143.904 22.656 L 143.904 21.984 Q 145.152 21.984 145.68 21.504 A 1.284 1.284 0 0 0 145.986 21.06 Q 146.167 20.646 146.2 19.991 A 6.084 6.084 0 0 0 146.208 19.68 L 146.208 9.632 A 6.894 6.894 0 0 0 146.17 8.882 Q 146.073 7.999 145.728 7.504 A 1.402 1.402 0 0 0 145.116 7.022 Q 144.639 6.816 143.904 6.816 L 143.904 6.144 Q 144.928 6.24 145.888 6.24 A 18.666 18.666 0 0 0 147.184 6.197 A 15.236 15.236 0 0 0 147.92 6.128 A 12.427 12.427 0 0 0 149.03 5.947 A 10.151 10.151 0 0 0 149.664 5.792 L 149.664 9.28 Q 150.496 7.296 151.952 6.496 Q 153.408 5.696 155.04 5.696 Q 155.953 5.696 156.629 5.867 A 3.723 3.723 0 0 1 157.136 6.032 Q 157.952 6.368 158.496 6.944 A 3.149 3.149 0 0 1 159.102 7.881 A 4.173 4.173 0 0 1 159.312 8.512 A 6.497 6.497 0 0 1 159.439 9.178 Q 159.544 9.929 159.551 10.957 A 21.568 21.568 0 0 1 159.552 11.104 Z M 85.44 11.104 L 85.44 19.68 A 5.516 5.516 0 0 0 85.472 20.294 Q 85.542 20.917 85.767 21.277 A 1.136 1.136 0 0 0 85.952 21.504 A 1.469 1.469 0 0 0 86.429 21.795 Q 86.867 21.965 87.53 21.982 A 5.833 5.833 0 0 0 87.68 21.984 L 87.68 22.656 Q 87.136 22.624 86 22.576 Q 84.864 22.528 83.776 22.528 Q 82.688 22.528 81.648 22.576 Q 80.852 22.613 80.346 22.64 A 61.048 61.048 0 0 0 80.064 22.656 L 80.064 21.984 Q 81.073 21.984 81.512 21.546 A 1.07 1.07 0 0 0 81.552 21.504 A 1.264 1.264 0 0 0 81.78 21.121 Q 81.928 20.746 81.969 20.155 A 6.941 6.941 0 0 0 81.984 19.68 L 81.984 10.208 Q 81.984 9.28 81.856 8.528 A 2.552 2.552 0 0 0 81.673 7.911 A 1.986 1.986 0 0 0 81.264 7.312 Q 80.908 6.956 80.24 6.873 A 3.52 3.52 0 0 0 79.808 6.848 Q 78.688 6.848 77.808 7.52 A 4.365 4.365 0 0 0 76.767 8.675 A 5.62 5.62 0 0 0 76.4 9.36 A 5.974 5.974 0 0 0 75.907 11.244 A 7.324 7.324 0 0 0 75.872 11.968 L 75.872 19.68 A 6.309 6.309 0 0 0 75.899 20.29 Q 75.982 21.142 76.32 21.504 Q 76.654 21.862 77.307 21.953 A 3.517 3.517 0 0 0 77.792 21.984 L 77.792 22.656 Q 77.4 22.632 76.708 22.598 A 219.199 219.199 0 0 0 76.256 22.576 A 44.878 44.878 0 0 0 74.28 22.529 A 49.025 49.025 0 0 0 74.144 22.528 Q 73.056 22.528 71.872 22.576 Q 70.688 22.624 70.112 22.656 L 70.112 21.984 Q 71.36 21.984 71.888 21.504 A 1.284 1.284 0 0 0 72.194 21.06 Q 72.375 20.646 72.408 19.991 A 6.084 6.084 0 0 0 72.416 19.68 L 72.416 9.632 A 6.894 6.894 0 0 0 72.378 8.882 Q 72.281 7.999 71.936 7.504 A 1.402 1.402 0 0 0 71.324 7.022 Q 70.847 6.816 70.112 6.816 L 70.112 6.144 Q 71.136 6.24 72.096 6.24 A 18.666 18.666 0 0 0 73.392 6.197 A 15.236 15.236 0 0 0 74.128 6.128 A 12.427 12.427 0 0 0 75.238 5.947 A 10.151 10.151 0 0 0 75.872 5.792 L 75.872 9.28 Q 76.704 7.36 78.096 6.528 Q 79.488 5.696 81.024 5.696 A 7.307 7.307 0 0 1 81.915 5.748 Q 82.362 5.803 82.741 5.917 A 3.816 3.816 0 0 1 83.072 6.032 Q 83.904 6.368 84.416 6.944 A 2.934 2.934 0 0 1 84.964 7.781 A 4.121 4.121 0 0 1 85.216 8.56 Q 85.379 9.293 85.423 10.304 A 18.236 18.236 0 0 1 85.44 11.104 Z M 51.744 12.768 L 40.704 12.768 L 40.64 12.16 L 48.352 12.16 Q 48.373 11.122 48.254 10.188 A 10.836 10.836 0 0 0 48.096 9.264 Q 47.866 8.202 47.431 7.478 A 3.78 3.78 0 0 0 47.2 7.136 A 2.056 2.056 0 0 0 46.582 6.583 Q 46.164 6.344 45.634 6.337 A 2.435 2.435 0 0 0 45.6 6.336 A 2.498 2.498 0 0 0 43.952 6.963 Q 43.563 7.292 43.216 7.792 A 5.133 5.133 0 0 0 42.639 8.936 Q 42.135 10.298 41.984 12.448 L 42.08 12.608 Q 42.048 13.056 42.016 13.584 Q 41.984 14.112 41.984 14.624 A 12.039 12.039 0 0 0 42.087 16.242 Q 42.247 17.42 42.656 18.336 Q 43.3 19.778 44.326 20.528 A 4.108 4.108 0 0 0 44.416 20.592 A 4.569 4.569 0 0 0 45.374 21.106 A 3.464 3.464 0 0 0 46.624 21.344 Q 47.488 21.344 48.304 21.072 A 4.168 4.168 0 0 0 49.382 20.521 A 5.225 5.225 0 0 0 49.856 20.144 A 4.813 4.813 0 0 0 50.511 19.42 Q 50.862 18.948 51.168 18.336 L 51.808 18.592 A 7.389 7.389 0 0 1 51.125 20.007 A 9.184 9.184 0 0 1 50.624 20.736 A 6.025 6.025 0 0 1 48.73 22.365 A 6.972 6.972 0 0 1 48.576 22.448 A 5.638 5.638 0 0 1 46.806 23.02 A 7.423 7.423 0 0 1 45.664 23.104 A 8.402 8.402 0 0 1 43.629 22.868 A 6.716 6.716 0 0 1 41.76 22.096 A 6.517 6.517 0 0 1 39.347 19.494 A 7.947 7.947 0 0 1 39.2 19.2 A 8.956 8.956 0 0 1 38.488 16.925 Q 38.31 15.927 38.304 14.794 A 14.915 14.915 0 0 1 38.304 14.72 Q 38.304 12.189 39.037 10.316 A 8.516 8.516 0 0 1 39.232 9.856 A 7.729 7.729 0 0 1 40.42 7.993 A 6.558 6.558 0 0 1 41.84 6.768 A 6.841 6.841 0 0 1 44.919 5.734 A 8.529 8.529 0 0 1 45.728 5.696 A 7.516 7.516 0 0 1 47.59 5.914 A 5.197 5.197 0 0 1 50.144 7.392 A 5.097 5.097 0 0 1 51.195 9.137 Q 51.744 10.612 51.744 12.768 Z M 141.696 12.768 L 130.656 12.768 L 130.592 12.16 L 138.304 12.16 Q 138.325 11.122 138.206 10.188 A 10.836 10.836 0 0 0 138.048 9.264 Q 137.818 8.202 137.383 7.478 A 3.78 3.78 0 0 0 137.152 7.136 A 2.056 2.056 0 0 0 136.534 6.583 Q 136.116 6.344 135.586 6.337 A 2.435 2.435 0 0 0 135.552 6.336 A 2.498 2.498 0 0 0 133.904 6.963 Q 133.515 7.292 133.168 7.792 A 5.133 5.133 0 0 0 132.591 8.936 Q 132.087 10.298 131.936 12.448 L 132.032 12.608 Q 132 13.056 131.968 13.584 Q 131.936 14.112 131.936 14.624 A 12.039 12.039 0 0 0 132.039 16.242 Q 132.199 17.42 132.608 18.336 Q 133.252 19.778 134.278 20.528 A 4.108 4.108 0 0 0 134.368 20.592 A 4.569 4.569 0 0 0 135.326 21.106 A 3.464 3.464 0 0 0 136.576 21.344 Q 137.44 21.344 138.256 21.072 A 4.168 4.168 0 0 0 139.334 20.521 A 5.225 5.225 0 0 0 139.808 20.144 A 4.813 4.813 0 0 0 140.463 19.42 Q 140.814 18.948 141.12 18.336 L 141.76 18.592 A 7.389 7.389 0 0 1 141.077 20.007 A 9.184 9.184 0 0 1 140.576 20.736 A 6.025 6.025 0 0 1 138.682 22.365 A 6.972 6.972 0 0 1 138.528 22.448 A 5.638 5.638 0 0 1 136.758 23.02 A 7.423 7.423 0 0 1 135.616 23.104 A 8.402 8.402 0 0 1 133.581 22.868 A 6.716 6.716 0 0 1 131.712 22.096 A 6.517 6.517 0 0 1 129.299 19.494 A 7.947 7.947 0 0 1 129.152 19.2 A 8.956 8.956 0 0 1 128.44 16.925 Q 128.262 15.927 128.256 14.794 A 14.915 14.915 0 0 1 128.256 14.72 Q 128.256 12.189 128.989 10.316 A 8.516 8.516 0 0 1 129.184 9.856 A 7.729 7.729 0 0 1 130.372 7.993 A 6.558 6.558 0 0 1 131.792 6.768 A 6.841 6.841 0 0 1 134.871 5.734 A 8.529 8.529 0 0 1 135.68 5.696 A 7.516 7.516 0 0 1 137.542 5.914 A 5.197 5.197 0 0 1 140.096 7.392 A 5.097 5.097 0 0 1 141.147 9.137 Q 141.696 10.612 141.696 12.768 Z M 63.136 11.616 L 63.136 9.44 A 5.873 5.873 0 0 0 63.094 8.719 Q 63.012 8.057 62.768 7.6 Q 62.4 6.912 61.776 6.624 Q 61.173 6.346 60.345 6.337 A 5.116 5.116 0 0 0 60.288 6.336 A 5.921 5.921 0 0 0 59.355 6.414 A 7.48 7.48 0 0 0 58.72 6.544 A 2.598 2.598 0 0 0 57.997 6.84 A 2.197 2.197 0 0 0 57.408 7.36 Q 58.112 7.552 58.576 8.112 A 1.998 1.998 0 0 1 59.015 9.129 A 2.675 2.675 0 0 1 59.04 9.504 A 2.178 2.178 0 0 1 58.958 10.119 A 1.636 1.636 0 0 1 58.448 10.912 A 2.08 2.08 0 0 1 57.35 11.398 A 2.81 2.81 0 0 1 56.96 11.424 A 2.498 2.498 0 0 1 56.39 11.363 Q 55.981 11.268 55.696 11.021 A 1.497 1.497 0 0 1 55.488 10.8 A 2.313 2.313 0 0 1 55.008 9.383 A 2.86 2.86 0 0 1 55.008 9.344 Q 55.008 8.518 55.403 7.985 A 1.794 1.794 0 0 1 55.44 7.936 A 4.425 4.425 0 0 1 55.976 7.376 A 6.038 6.038 0 0 1 56.576 6.912 Q 57.222 6.481 58.175 6.164 A 10.594 10.594 0 0 1 58.544 6.048 A 8.581 8.581 0 0 1 60.065 5.754 A 11.022 11.022 0 0 1 61.216 5.696 A 10.502 10.502 0 0 1 62.312 5.75 Q 62.863 5.808 63.339 5.928 A 5.855 5.855 0 0 1 63.6 6 A 4.233 4.233 0 0 1 64.653 6.475 A 3.652 3.652 0 0 1 65.28 6.976 Q 66.08 7.712 66.336 8.816 A 8.944 8.944 0 0 1 66.502 9.79 Q 66.592 10.557 66.592 11.488 L 66.592 20.32 Q 66.592 21.12 66.8 21.456 Q 67.008 21.792 67.488 21.792 A 1.309 1.309 0 0 0 68.055 21.661 A 1.546 1.546 0 0 0 68.112 21.632 Q 68.416 21.472 68.832 21.152 L 69.152 21.696 A 7.119 7.119 0 0 1 68.327 22.276 A 5.861 5.861 0 0 1 67.792 22.56 A 3.127 3.127 0 0 1 67.123 22.778 Q 66.644 22.88 66.048 22.88 A 5.392 5.392 0 0 1 65.389 22.843 Q 65.051 22.801 64.768 22.713 A 2.537 2.537 0 0 1 64.384 22.56 Q 63.744 22.24 63.44 21.632 Q 63.17 21.093 63.14 20.327 A 5.003 5.003 0 0 1 63.136 20.128 A 6.968 6.968 0 0 1 62.239 21.296 A 5.452 5.452 0 0 1 61.152 22.176 Q 60 22.88 58.464 22.88 Q 57.12 22.88 56.16 22.368 A 3.568 3.568 0 0 1 55.168 21.602 A 3.283 3.283 0 0 1 54.72 20.96 Q 54.24 20.064 54.24 18.912 Q 54.24 17.727 54.694 16.916 A 2.909 2.909 0 0 1 54.88 16.624 Q 55.52 15.744 56.528 15.2 Q 57.536 14.656 58.672 14.288 Q 59.808 13.92 60.816 13.584 A 8.724 8.724 0 0 0 61.577 13.293 Q 62.091 13.066 62.48 12.8 A 1.649 1.649 0 0 0 62.867 12.441 A 1.323 1.323 0 0 0 63.136 11.616 Z M 0 22.656 L 0 22.016 Q 0.92 21.962 1.451 21.817 A 2.653 2.653 0 0 0 1.632 21.76 A 1.089 1.089 0 0 0 2.299 21.139 A 1.439 1.439 0 0 0 2.352 20.992 A 3.071 3.071 0 0 0 2.441 20.6 Q 2.509 20.191 2.524 19.611 A 13.377 13.377 0 0 0 2.528 19.264 L 2.528 3.392 Q 2.528 2.208 2.352 1.648 A 1.138 1.138 0 0 0 1.738 0.932 A 1.443 1.443 0 0 0 1.616 0.88 Q 1.11 0.692 0.2 0.648 A 10.921 10.921 0 0 0 0 0.64 L 0 0 Q 0.736 0.032 1.904 0.08 Q 3.072 0.128 4.224 0.096 Q 5.376 0.064 6.8 0.032 Q 8.074 0.004 8.925 0.001 A 54.982 54.982 0 0 1 9.12 0 A 19.474 19.474 0 0 1 12.367 0.253 Q 14.103 0.547 15.476 1.184 A 8.513 8.513 0 0 1 17.92 2.864 Q 20.565 5.495 20.781 10.218 A 18.743 18.743 0 0 1 20.8 11.072 Q 20.8 14.56 19.392 17.168 Q 17.984 19.776 15.312 21.216 Q 12.716 22.616 9.047 22.655 A 19.889 19.889 0 0 1 8.832 22.656 Q 8.352 22.656 7.536 22.624 A 81.108 81.108 0 0 0 5.91 22.577 A 88.358 88.358 0 0 0 5.856 22.576 Q 4.992 22.56 4.288 22.56 Q 3.072 22.56 1.904 22.576 Q 0.859 22.591 0.16 22.643 A 14.007 14.007 0 0 0 0 22.656 Z M 29.088 12 L 29.088 19.36 Q 29.088 20.928 29.952 21.456 A 3.149 3.149 0 0 0 30.747 21.793 Q 31.13 21.901 31.59 21.948 A 7.505 7.505 0 0 0 32.352 21.984 L 32.352 22.656 Q 31.789 22.632 30.859 22.598 A 520.734 520.734 0 0 0 30.256 22.576 Q 28.896 22.528 27.392 22.528 Q 26.24 22.528 25.088 22.576 Q 24.206 22.613 23.643 22.64 A 79.048 79.048 0 0 0 23.328 22.656 L 23.328 21.984 Q 24.576 21.984 25.104 21.504 A 1.284 1.284 0 0 0 25.41 21.06 Q 25.591 20.646 25.624 19.991 A 6.084 6.084 0 0 0 25.632 19.68 L 25.632 9.632 A 6.894 6.894 0 0 0 25.594 8.882 Q 25.497 7.999 25.152 7.504 A 1.402 1.402 0 0 0 24.54 7.022 Q 24.063 6.816 23.328 6.816 L 23.328 6.144 Q 24.352 6.24 25.312 6.24 A 18.666 18.666 0 0 0 26.608 6.197 A 15.236 15.236 0 0 0 27.344 6.128 A 12.427 12.427 0 0 0 28.454 5.947 A 10.151 10.151 0 0 0 29.088 5.792 L 29.088 9.472 Q 29.472 8.544 30.112 7.68 Q 30.752 6.816 31.648 6.256 Q 32.544 5.696 33.632 5.696 A 3.746 3.746 0 0 1 34.379 5.767 A 2.714 2.714 0 0 1 35.216 6.08 A 2.883 2.883 0 0 1 35.838 6.563 A 2.445 2.445 0 0 1 36.208 7.056 A 2.597 2.597 0 0 1 36.539 8.203 A 3.112 3.112 0 0 1 36.544 8.384 A 2.557 2.557 0 0 1 36.4 9.257 A 2.277 2.277 0 0 1 35.984 9.968 Q 35.424 10.624 34.496 10.624 A 2.214 2.214 0 0 1 33.767 10.508 A 1.935 1.935 0 0 1 33.136 10.144 Q 32.576 9.664 32.576 8.832 A 2.244 2.244 0 0 1 32.654 8.228 A 1.802 1.802 0 0 1 32.944 7.632 A 3.111 3.111 0 0 1 33.461 7.082 A 2.711 2.711 0 0 1 33.792 6.848 Q 33.508 6.621 33.122 6.621 A 1.375 1.375 0 0 0 33.024 6.624 Q 32.16 6.656 31.424 7.184 Q 30.688 7.712 30.176 8.528 Q 29.664 9.344 29.376 10.272 A 6.816 6.816 0 0 0 29.162 11.155 A 5.073 5.073 0 0 0 29.088 12 Z M 168.8 0.864 L 168.8 6.176 L 173.216 6.176 L 173.216 6.816 L 168.8 6.816 L 168.8 19.392 Q 168.8 20.704 169.28 21.248 A 1.555 1.555 0 0 0 170.125 21.737 A 2.384 2.384 0 0 0 170.656 21.792 A 1.949 1.949 0 0 0 171.911 21.334 A 2.693 2.693 0 0 0 172.144 21.12 A 3.058 3.058 0 0 0 172.556 20.579 Q 172.901 20.016 173.188 19.142 A 11.934 11.934 0 0 0 173.28 18.848 L 173.888 19.072 A 7.432 7.432 0 0 1 173.316 20.72 A 6.068 6.068 0 0 1 172.528 21.936 A 3.141 3.141 0 0 1 170.78 22.985 A 4.887 4.887 0 0 1 169.664 23.104 Q 168.576 23.104 167.84 22.832 Q 167.104 22.56 166.56 22.048 Q 165.856 21.312 165.6 20.288 A 7.163 7.163 0 0 1 165.454 19.505 Q 165.399 19.093 165.372 18.609 A 18.37 18.37 0 0 1 165.344 17.568 L 165.344 6.816 L 162.4 6.816 L 162.4 6.176 L 165.344 6.176 L 165.344 1.504 A 15.091 15.091 0 0 0 166.534 1.421 A 12.509 12.509 0 0 0 167.2 1.328 Q 168.064 1.184 168.8 0.864 Z M 95.072 11.104 L 95.072 19.68 Q 95.072 20.777 95.423 21.298 A 1.131 1.131 0 0 0 95.6 21.504 Q 96.128 21.984 97.376 21.984 L 97.376 22.656 Q 96.832 22.624 95.68 22.576 Q 94.528 22.528 93.408 22.528 Q 92.32 22.528 91.28 22.576 Q 90.484 22.613 89.978 22.64 A 61.048 61.048 0 0 0 89.696 22.656 L 89.696 21.984 Q 90.705 21.984 91.144 21.546 A 1.07 1.07 0 0 0 91.184 21.504 A 1.264 1.264 0 0 0 91.412 21.121 Q 91.56 20.746 91.601 20.155 A 6.941 6.941 0 0 0 91.616 19.68 L 91.616 10.208 Q 91.616 9.28 91.488 8.528 A 2.452 2.452 0 0 0 91.295 7.896 A 1.963 1.963 0 0 0 90.88 7.312 A 1.459 1.459 0 0 0 90.357 6.995 Q 90.129 6.913 89.847 6.877 A 3.709 3.709 0 0 0 89.376 6.848 Q 88.256 6.848 87.376 7.536 Q 86.496 8.224 85.968 9.392 A 5.974 5.974 0 0 0 85.475 11.276 A 7.324 7.324 0 0 0 85.44 12 L 85.312 9.344 A 7.926 7.926 0 0 1 85.943 8.103 Q 86.354 7.454 86.854 7.008 A 3.902 3.902 0 0 1 87.632 6.464 Q 89.088 5.696 90.656 5.696 A 7.307 7.307 0 0 1 91.547 5.748 Q 91.994 5.803 92.373 5.917 A 3.816 3.816 0 0 1 92.704 6.032 Q 93.536 6.368 94.048 6.944 A 2.934 2.934 0 0 1 94.596 7.781 A 4.121 4.121 0 0 1 94.848 8.56 Q 95.011 9.293 95.055 10.304 A 18.236 18.236 0 0 1 95.072 11.104 Z M 6.208 3.328 L 6.208 19.328 A 9.332 9.332 0 0 0 6.233 20.047 Q 6.317 21.12 6.672 21.536 A 1.18 1.18 0 0 0 7.085 21.835 Q 7.487 22.02 8.146 22.065 A 6.688 6.688 0 0 0 8.608 22.08 A 13.397 13.397 0 0 0 10.487 21.957 Q 11.474 21.817 12.279 21.518 A 5.89 5.89 0 0 0 13.632 20.816 Q 15.424 19.552 16.16 17.12 Q 16.763 15.128 16.872 12.426 A 30.436 30.436 0 0 0 16.896 11.2 A 26.581 26.581 0 0 0 16.793 8.783 Q 16.683 7.589 16.458 6.572 A 12.36 12.36 0 0 0 16.096 5.264 A 7.638 7.638 0 0 0 15.203 3.433 A 5.964 5.964 0 0 0 13.488 1.744 Q 12.064 0.824 9.836 0.629 A 14.437 14.437 0 0 0 8.576 0.576 A 6.294 6.294 0 0 0 7.981 0.602 Q 7.006 0.695 6.656 1.12 A 1.378 1.378 0 0 0 6.439 1.515 Q 6.208 2.132 6.208 3.325 A 11.74 11.74 0 0 0 6.208 3.328 Z M 112.384 11.904 L 112.32 11.36 Q 113.952 11.424 114.944 11.504 Q 115.936 11.584 116.608 11.648 A 19.647 19.647 0 0 1 117.372 11.736 A 15.794 15.794 0 0 1 117.856 11.808 Q 120.13 12.112 121.241 12.989 A 3.311 3.311 0 0 1 121.36 13.088 A 4.019 4.019 0 0 1 122.265 14.253 Q 122.665 15.005 122.88 16.032 L 123.68 19.296 Q 123.968 20.672 124.304 21.248 Q 124.61 21.773 125.196 21.82 A 1.47 1.47 0 0 0 125.312 21.824 A 1.742 1.742 0 0 0 125.72 21.753 A 1.306 1.306 0 0 0 126.16 21.52 Q 126.496 21.248 126.88 20.768 L 127.328 21.12 A 7.365 7.365 0 0 1 126.719 21.845 Q 126.38 22.197 126.028 22.45 A 4.094 4.094 0 0 1 125.792 22.608 A 2.989 2.989 0 0 1 124.988 22.947 Q 124.404 23.104 123.648 23.104 A 4.385 4.385 0 0 1 122.446 22.946 A 3.557 3.557 0 0 1 121.296 22.384 Q 120.381 21.709 119.958 19.894 A 9.921 9.921 0 0 1 119.904 19.648 L 119.264 16.448 A 24.245 24.245 0 0 0 119 15.315 Q 118.822 14.631 118.624 14.064 Q 118.272 13.056 117.648 12.48 Q 117.024 11.904 115.84 11.904 L 112.384 11.904 Z M 63.136 19.296 L 63.136 12.928 A 2.528 2.528 0 0 1 62.639 13.459 A 3.52 3.52 0 0 1 62.112 13.808 A 40.87 40.87 0 0 1 61.235 14.275 A 48.445 48.445 0 0 1 60.672 14.56 Q 59.904 14.944 59.216 15.44 Q 58.528 15.936 58.08 16.704 A 3.074 3.074 0 0 0 57.751 17.546 Q 57.662 17.921 57.639 18.358 A 5.848 5.848 0 0 0 57.632 18.656 Q 57.632 19.904 58.272 20.624 A 2.106 2.106 0 0 0 59.639 21.323 A 2.969 2.969 0 0 0 60 21.344 Q 60.896 21.344 61.68 20.832 Q 62.464 20.32 63.136 19.296 Z"/></g></svg>